# xmcd
#
# Track frame offsets: 
#        150
#        20545
#        35214
#        38581
#        61321
#        65161
#        100019
#        115472
#        119530
#        133883
#        137323
#        149275
#        154144
#        186625
#        206998
#        222312
#        250768
#        254978
#        286878
#
# Disc length: 3942 seconds
#
# Revision: 2
# Processed by: cddbd v1.5.2PL0 Copyright (c) Steve Scherf et al.
# Submitted via: ExactAudioCopy v1.2
#
DISCID=390f6413
DTITLE=Junior Wells and The Aces - Live In Boston 1966
DYEAR=2010
DGENRE=Blues
TTITLE0=Feelin' Good
TTITLE1=Man Downstairs
TTITLE2=Talk
TTITLE3=Worried Life Blues
TTITLE4=Talk
TTITLE5=Junior's Whoop
TTITLE6=That's All Right
TTITLE7=Talk
TTITLE8=Look On Yonder's Wall
TTITLE9=Talk
TTITLE10=Messin' With The Kid
TTITLE11=Talk
TTITLE12=Hideaway
TTITLE13=If You Gonna Leave Me
TTITLE14=Talk
TTITLE15=I Don't Know
TTITLE16=Talk
TTITLE17=Got My Mojo Workin'
TTITLE18=Theme
EXTD=
EXTT0=
EXTT1=
EXTT2=
EXTT3=
EXTT4=
EXTT5=
EXTT6=
EXTT7=
EXTT8=
EXTT9=
EXTT10=
EXTT11=
EXTT12=
EXTT13=
EXTT14=
EXTT15=
EXTT16=
EXTT17=
EXTT18=
PLAYORDER=
